{
  "asset": {
    "version": "2.0",
    "generator": "3dpea GLTFExporter"
  },
  "scenes": [
    {
      "name": "AuxScene",
      "nodes": [
        14
      ]
    }
  ],
  "scene": 0,
  "nodes": [
    {
      "matrix": [
        -0.0024428510450020076,
        -0.001873813702728523,
        -0.009514270924754827,
        0,
        -0.00046599831947842946,
        0.009822872232953885,
        -0.0018149442704305638,
        0,
        0.009685834606394958,
        -1.613254994237282e-10,
        -0.002486901080066761,
        0,
        0.0455872043967247,
        0.03135494515299797,
        0.15865740180015564,
        1
      ],
      "name": "Shop_SciFi_RocketShip03_pgp1",
      "extras": {
        "name": "Shop_SciFi_RocketShip03_pgp.1"
      }
    },
    {
      "matrix": [
        0.9842662123462383,
        0.11487109292092061,
        0.13425548827054104,
        0,
        0.11922391346233147,
        -0.9925571726146711,
        -0.024817929395938965,
        0,
        0.13040539214326063,
        0.04043391644298078,
        -0.990635929168235,
        0,
        4.267380714416504,
        0,
        0,
        1
      ],
      "name": "ambient_L3",
      "extras": {
        "name": "ambient_L.3"
      }
    },
    {
      "name": "ambient_R4",
      "extras": {
        "name": "ambient_R.4"
      }
    },
    {
      "name": "ambient_Back5",
      "extras": {
        "name": "ambient_Back.5"
      }
    },
    {
      "name": "ambient_Bottom6",
      "extras": {
        "name": "ambient_Bottom.6"
      }
    },
    {
      "name": "ambient_Top7",
      "extras": {
        "name": "ambient_Top.7"
      }
    },
    {
      "matrix": [
        1,
        0,
        0,
        0,
        0,
        0.6180901192381736,
        0.7861072429928022,
        0,
        0,
        -0.7861072429928022,
        0.6180901192381736,
        0,
        0.20758236944675446,
        182.10972595214844,
        276.22174072265625,
        1
      ],
      "name": "ambient_Back18",
      "extras": {
        "name": "ambient_Back1.8"
      }
    },
    {
      "matrix": [
        0.009999999776482582,
        0,
        0,
        0,
        0,
        0.009999999776482582,
        0,
        0,
        0,
        0,
        0.009999999776482582,
        0,
        0,
        0,
        0,
        1
      ],
      "name": "lights2",
      "extras": {
        "name": "lights.2"
      },
      "children": [
        1,
        2,
        3,
        4,
        5,
        6
      ]
    },
    {
      "matrix": [
        4.2551798820495605,
        2.4815275268588825e-15,
        2.1421151846354998e-32,
        0,
        -2.4815255802921175e-15,
        4.255176544189453,
        2.2420708111492664e-23,
        0,
        -2.1421121967850191e-32,
        -2.2420708111492664e-23,
        4.255176544189453,
        0,
        4.6566128730773926e-8,
        -7.061246587447556e-10,
        0.02212686464190483,
        1
      ],
      "name": "Standard12",
      "extras": {
        "name": "Standard.12"
      },
      "mesh": 0
    },
    {
      "matrix": [
        2.3652758598327637,
        1.379376975236755e-15,
        2.2884128208841687e-32,
        0,
        -1.3793761409938557e-15,
        2.365274429321289,
        1.2462732634631881e-23,
        0,
        -2.2884107100600032e-32,
        -1.2462732634631881e-23,
        2.365274429321289,
        0,
        0.024254538118839264,
        4.37201697067735e-9,
        -0.11318773031234741,
        1
      ],
      "name": "Standard13",
      "extras": {
        "name": "Standard.13"
      },
      "mesh": 1
    },
    {
      "matrix": [
        1,
        7.341775187796884e-9,
        3.033877963972636e-32,
        0,
        -7.341775187796884e-9,
        1,
        5.269042982977683e-24,
        0,
        8.345349396134471e-33,
        -5.269042982977683e-24,
        1,
        0,
        0,
        0,
        0,
        1
      ],
      "name": "Compound11",
      "extras": {
        "name": "Compound.11"
      },
      "children": [
        8,
        9
      ]
    },
    {
      "matrix": [
        1,
        0,
        0,
        0,
        0,
        1,
        5.269042982977683e-24,
        0,
        0,
        -5.269042982977683e-24,
        1,
        0,
        0,
        0,
        0,
        1
      ],
      "name": "CreationRoot10",
      "extras": {
        "name": "CreationRoot.10"
      },
      "children": [
        10
      ]
    },
    {
      "matrix": [
        0.19999995827674866,
        0,
        0,
        0,
        0,
        -6.845707947704484e-9,
        0.1999999812333631,
        0,
        0,
        0.1999999812333631,
        6.845707947704484e-9,
        0,
        0,
        0,
        0,
        1
      ],
      "name": "Anchor9",
      "extras": {
        "name": "Anchor.9"
      },
      "children": [
        11
      ]
    },
    {
      "name": "RootNode0",
      "extras": {
        "name": "RootNode.0"
      },
      "children": [
        0,
        7,
        12
      ]
    },
    {
      "name": "RocketShip",
      "children": [
        13
      ]
    }
  ],
  "bufferViews": [
    {
      "buffer": 0,
      "byteOffset": 0,
      "byteLength": 1644,
      "target": 34962,
      "byteStride": 12
    },
    {
      "buffer": 0,
      "byteOffset": 1644,
      "byteLength": 1644,
      "target": 34962,
      "byteStride": 12
    },
    {
      "buffer": 0,
      "byteOffset": 3288,
      "byteLength": 2192,
      "target": 34962,
      "byteStride": 16
    },
    {
      "buffer": 0,
      "byteOffset": 5480,
      "byteLength": 1096,
      "target": 34962,
      "byteStride": 8
    },
    {
      "buffer": 0,
      "byteOffset": 6576,
      "byteLength": 1056,
      "target": 34963
    },
    {
      "buffer": 0,
      "byteOffset": 7632,
      "byteLength": 1536,
      "target": 34962,
      "byteStride": 16
    },
    {
      "buffer": 0,
      "byteOffset": 9168,
      "byteLength": 1152,
      "target": 34962,
      "byteStride": 12
    },
    {
      "buffer": 0,
      "byteOffset": 10320,
      "byteLength": 1152,
      "target": 34962,
      "byteStride": 12
    },
    {
      "buffer": 0,
      "byteOffset": 11472,
      "byteLength": 768,
      "target": 34962,
      "byteStride": 8
    },
    {
      "buffer": 0,
      "byteOffset": 12240,
      "byteLength": 384,
      "target": 34963
    }
  ],
  "buffers": [
    {
      "byteLength": 12624,
      "uri": "data:application/octet-stream;base64,"
    }
  ],
  "accessors": [
    {
      "bufferView": 0,
      "componentType": 5126,
      "count": 137,
      "max": [
        0.005103602074086666,
        0.005103603005409241,
        0.04924161732196808
      ],
      "min": [
        -0.005103602074086666,
        -0.005103603005409241,
        -0.04924161732196808
      ],
      "type": "VEC3"
    },
    {
      "bufferView": 1,
      "componentType": 5126,
      "count": 137,
      "max": [
        0.9999397993087769,
        0.9999397993087769,
        1
      ],
      "min": [
        -0.9999397993087769,
        -0.9999397993087769,
        -1
      ],
      "type": "VEC3"
    },
    {
      "bufferView": 2,
      "componentType": 5126,
      "count": 137,
      "max": [
        1,
        1,
        0.44033995270729065,
        -1
      ],
      "min": [
        -0.8861793875694275,
        -0.8865399360656738,
        -0.4403402805328369,
        -1
      ],
      "type": "VEC4"
    },
    {
      "bufferView": 3,
      "componentType": 5126,
      "count": 137,
      "max": [
        0.40573152899742126,
        1
      ],
      "min": [
        0,
        0.08023852109909058
      ],
      "type": "VEC2"
    },
    {
      "bufferView": 4,
      "componentType": 5123,
      "count": 528,
      "max": [
        136
      ],
      "min": [
        0
      ],
      "type": "SCALAR"
    },
    {
      "bufferView": 5,
      "componentType": 5126,
      "count": 96,
      "max": [
        0.933900773525238,
        1,
        0.5027333498001099,
        -1
      ],
      "min": [
        -0.6147686839103699,
        -0.9992515444755554,
        -0.4694339334964752,
        -1
      ],
      "type": "VEC4"
    },
    {
      "bufferView": 6,
      "componentType": 5126,
      "count": 96,
      "max": [
        0.9999996423721313,
        1,
        0.11687369644641876
      ],
      "min": [
        -0.9999248385429382,
        -1,
        -1
      ],
      "type": "VEC3"
    },
    {
      "bufferView": 7,
      "componentType": 5126,
      "count": 96,
      "max": [
        0.027177982032299042,
        0.031382396817207336,
        0.049632102251052856
      ],
      "min": [
        -0.027177982032299042,
        -0.031382396817207336,
        -0.04963209480047226
      ],
      "type": "VEC3"
    },
    {
      "bufferView": 8,
      "componentType": 5126,
      "count": 96,
      "max": [
        1,
        1
      ],
      "min": [
        0.24247051775455475,
        0.04120612144470215
      ],
      "type": "VEC2"
    },
    {
      "bufferView": 9,
      "componentType": 5123,
      "count": 192,
      "max": [
        95
      ],
      "min": [
        0
      ],
      "type": "SCALAR"
    }
  ],
  "materials": [
    {
      "pbrMetallicRoughness": {
        "metallicFactor": 0,
        "roughnessFactor": 1,
        "baseColorTexture": {
          "index": 0
        }
      },
      "normalTexture": {
        "index": 1
      },
      "doubleSided": true,
      "name": "Mat_1"
    },
    {
      "pbrMetallicRoughness": {
        "metallicFactor": 0,
        "roughnessFactor": 1,
        "baseColorTexture": {
          "index": 2
        }
      },
      "normalTexture": {
        "index": 3
      },
      "doubleSided": true,
      "name": "Mat_2"
    }
  ],
  "textures": [
    {
      "sampler": 0,
      "source": 0
    },
    {
      "sampler": 1,
      "source": 1
    },
    {
      "sampler": 2,
      "source": 2
    },
    {
      "sampler": 3,
      "source": 3
    }
  ],
  "samplers": [
    {
      "magFilter": 9729,
      "minFilter": 9985,
      "wrapS": 10497,
      "wrapT": 10497
    },
    {
      "magFilter": 9729,
      "minFilter": 9985,
      "wrapS": 10497,
      "wrapT": 10497
    },
    {
      "magFilter": 9729,
      "minFilter": 9985,
      "wrapS": 10497,
      "wrapT": 10497
    },
    {
      "magFilter": 9729,
      "minFilter": 9985,
      "wrapS": 10497,
      "wrapT": 10497
    }
  ],
  "images": [
    {
      "mimeType": "image/png",
      "uri": "data:image/png;base64,"
    },
    {
      "mimeType": "image/png",
      "uri": "data:image/png;base64,"
    },
    {
      "mimeType": "image/png",
      "uri": "data:image/png;base64,"
    },
    {
      "mimeType": "image/png",
      "uri": "data:image/png;base64,"
    }
  ],
  "meshes": [
    {
      "primitives": [
        {
          "mode": 4,
          "attributes": {
            "POSITION": 0,
            "NORMAL": 1,
            "TANGENT": 2,
            "TEXCOORD_0": 3
          },
          "indices": 4,
          "material": 0
        }
      ]
    },
    {
      "primitives": [
        {
          "mode": 4,
          "attributes": {
            "TANGENT": 5,
            "NORMAL": 6,
            "POSITION": 7,
            "TEXCOORD_0": 8
          },
          "indices": 9,
          "material": 1
        }
      ]
    }
  ]
}