{"accessors" : [{"bufferView" : 0, "byteOffset" : 0, "componentType" : 5123, "count" : 73464, "type" : "SCALAR", "max" : [12241], "min" : [0]}, {"bufferView" : 1, "byteOffset" : 0, "componentType" : 5126, "count" : 12242, "type" : "VEC3", "max" : [51.93000030517578, 510.6999816894531, 51.93000030517578], "min" : [-51.93000030517578, -236.8000030517578, -51.93000030517578], "name" : "POSITION"}, {"bufferView" : 1, "byteOffset" : 12, "componentType" : 5126, "count" : 12242, "type" : "VEC3", "max" : [0.7764706015586853, 0.7568627595901489, 0.7372549176216125], "min" : [0.10196078568696976, 0.10196078568696976, 0.10196078568696976], "name" : "COLOR_0"}], "asset" : {"generator" : "Aspose.3D 24.6.0", "version" : "2.0"}, "buffers" : [{"uri" : "data:application/octet-stream;base64,", "byteLength" : 440744}], "bufferViews" : [{"buffer" : 0, "byteOffset" : 0, "byteLength" : 146928, "target" : 34963}, {"buffer" : 0, "byteOffset" : 146932, "byteLength" : 293808, "byteStride" : 24, "target" : 34962}], "meshes" : [{"primitives" : [{"attributes" : {"POSITION" : 1, "COLOR_0" : 2}, "indices" : 0, "mode" : 4}], "name" : ""}], "nodes" : [{"mesh" : 0, "name" : "model"}], "scene" : 0, "scenes" : [{"nodes" : [0]}]}