{"accessors" : [{"bufferView" : 0, "byteOffset" : 0, "componentType" : 5123, "count" : 172608, "type" : "SCALAR", "max" : [28777], "min" : [0]}, {"bufferView" : 1, "byteOffset" : 0, "componentType" : 5126, "count" : 28778, "type" : "VEC3", "max" : [173.85000610351562, 2870.64453125, 151.3078155517578], "min" : [-173.85000610351562, 152.12054443359375, -151.3078155517578], "name" : "POSITION"}, {"bufferView" : 1, "byteOffset" : 12, "componentType" : 5126, "count" : 28778, "type" : "VEC3", "max" : [0.9686274528503418, 0.9176470637321472, 0.929411768913269], "min" : [0.10196078568696976, 0.10196078568696976, 0.10196078568696976], "name" : "COLOR_0"}], "asset" : {"generator" : "Aspose.3D 24.6.0", "version" : "2.0"}, "buffers" : [{"uri" : "buffer.bin", "byteLength" : 1035896}], "bufferViews" : [{"buffer" : 0, "byteOffset" : 0, "byteLength" : 345216, "target" : 34963}, {"buffer" : 0, "byteOffset" : 345220, "byteLength" : 690672, "byteStride" : 24, "target" : 34962}], "meshes" : [{"primitives" : [{"attributes" : {"POSITION" : 1, "COLOR_0" : 2}, "indices" : 0, "mode" : 4}], "name" : ""}], "nodes" : [{"mesh" : 0, "name" : "model"}], "scene" : 0, "scenes" : [{"nodes" : [0]}]}