{
  "accessors": [
    {
      "bufferView": 0,
      "componentType": 5125,
      "count": 10944,
      "type": "SCALAR"
    },
    {
      "bufferView": 1,
      "componentType": 5126,
      "count": 2291,
      "max": [
        1.22429275512695,
        5.41761684417725,
        1.2572580575943
      ],
      "min": [
        -1.22429299354553,
        0.00762152671813965,
        -1.2572580575943
      ],
      "type": "VEC3"
    },
    {
      "bufferView": 2,
      "componentType": 5126,
      "count": 2291,
      "type": "VEC3"
    },
    {
      "bufferView": 3,
      "componentType": 5126,
      "count": 2291,
      "type": "VEC2"
    }
  ],
  "asset": {
    "generator": "Substance Painter 6.2.2",
    "version": "2.0"
  },
  "bufferViews": [
    {
      "buffer": 0,
      "byteLength": 43776,
      "target": 34963
    },
    {
      "buffer": 0,
      "byteLength": 27492,
      "byteOffset": 43776,
      "target": 34962
    },
    {
      "buffer": 0,
      "byteLength": 27492,
      "byteOffset": 71268,
      "target": 34962
    },
    {
      "buffer": 0,
      "byteLength": 18328,
      "byteOffset": 98760,
      "target": 34962
    }
  ],
  "buffers": [
    {
      "byteLength": 117088,
      "uri": "rocket.bin"
    }
  ],
  "images": [
    {
      "uri": "Rocket_BPR_baseColor.png"
    },
    {
      "uri": "Rocket_BPR_occlusionRoughnessMetallic.png"
    },
    {
      "uri": "Rocket_BPR_normal.png"
    }
  ],
  "materials": [
    {
      "alphaMode": "OPAQUE",
      "name": "Rocket_BPR",
      "normalTexture": {
        "index": 2
      },
      "occlusionTexture": {
        "index": 1
      },
      "pbrMetallicRoughness": {
        "baseColorTexture": {
          "index": 0
        },
        "metallicRoughnessTexture": {
          "index": 1
        }
      }
    }
  ],
  "meshes": [
    {
      "name": "Rocket2",
      "primitives": [
        {
          "attributes": {
            "NORMAL": 2,
            "POSITION": 1,
            "TEXCOORD_0": 3
          },
          "indices": 0,
          "material": 0,
          "mode": 4
        }
      ]
    }
  ],
  "nodes": [
    {
      "children": [
        1
      ],
      "name": "RootNode"
    },
    {
      "children": [
        2
      ],
      "name": "Rocket2"
    },
    {
      "mesh": 0,
      "name": "Rocket2"
    }
  ],
  "samplers": [
    {
      "magFilter": 9729,
      "minFilter": 9985,
      "wrapS": 10497,
      "wrapT": 10497
    }
  ],
  "scene": 0,
  "scenes": [
    {
      "name": "Scene",
      "nodes": [
        0
      ]
    }
  ],
  "textures": [
    {
      "sampler": 0,
      "source": 0
    },
    {
      "sampler": 0,
      "source": 1
    },
    {
      "sampler": 0,
      "source": 2
    }
  ]
}